mtllib levelbrush.mtl
# vertices
v -64 12 -64
v -64 12 64
v -64 16 -64
v -48 16 48
v 48 16 48
v 64 12 64
v 64 12 -64
v 64 16 -64
v -64 12 -64
v -64 16 -64
v -64 12 -192
v -48 16 -176
v 64 16 -64
v 64 12 -64
v 64 12 -192
v 48 16 -176
v -60 32 -44
v -60 32 -48
v -60 16 -48
v -60 16 -44
v 20 16 -68
v 20 32 -68
v 20 16 -64
v 20 32 -64
v 20 28 -68
v 20 28 -64
v 20 32 -64
v 20 32 -68
v 40 32 -64
v 40 28 -64
v 40 28 -68
v 40 32 -68
v 20 20 -64
v 20 24 -64
v 20 24 -68
v 20 20 -68
v 24 28 -64
v 24 28 -68
v 28 28 -64
v 28 28 -68
v 40 20 -64
v 32 28 -64
v 32 28 -68
v 40 20 -68
v 40 24 -64
v 36 28 -64
v 36 28 -68
v 40 24 -68
v 40 16 -68
v 40 16 -64
v 40 32 -64
v 40 32 -68
v 44 32 -64
v 44 16 -64
v 44 16 -68
v 44 32 -68
v -8 44 -44
v -8 16 -8
v -8 16 -4
v -8 48 -44
v 12 48 -44
v 12 16 -4
v 12 16 -8
v 12 44 -44
v -4 44 -96
v -8 44 -44
v -8 48 -44
v -4 48 -96
v 12 48 -44
v 12 44 -44
v 16 44 -96
v 16 48 -96

# texture coordinates
vt -64 -12
vt 64 -12
vt -64 -16
vt -64 63.86667
vt 64 63.86667
vt 48 47.86667
vt 48 48
vt -48 48
vt -64 64
vt 64 64
vt -64 -64
vt 64 -64
vt -48 -48
vt 48 -48
vt -64 12
vt 64 12
vt 64 16
vt -64 16
vt 64 63.826668
vt -48 47.826668
vt -64 63.826668
vt 64 -16
vt -192 12
vt -192 63.306667
vt -64 63.306667
vt -176 47.306667
vt -64 -192
vt 64 -192
vt -48 -176
vt 48 -176
vt -64 192
vt 64 192
vt 48 176
vt -48 176
vt 192 63.306667
vt 176 47.306667
vt 64 63.306667
vt 192 12
vt -44 -32
vt -48 -32
vt -48 -16
vt -44 -16
vt -20 16
vt 60 16
vt 60 32
vt -20 32
vt -20 64
vt 60 44
vt 60 48
vt -20 68
vt 20 68
vt -60 48
vt -60 44
vt 20 64
vt 20 32
vt -60 32
vt -60 16
vt 20 16
vt 68 32
vt 64 32
vt 68 16
vt -68 28
vt -64 28
vt -64 32
vt -68 32
vt 40 32
vt 20 28
vt 40 28
vt -40 64
vt -40 68
vt 40 68
vt 40 64
vt -40 28
vt -20 28
vt -40 32
vt 64 28
vt 68 28
vt -24 64
vt -24 68
vt -68 -20
vt -64 -20
vt -64 -24
vt -68 -24
vt -28 28
vt -24 28
vt -20 24
vt -20 20
vt 28 68
vt 24 68
vt 24 64
vt 28 64
vt 20 20
vt 20 24
vt 24 28
vt 28 28
vt 68 -28
vt 64 -28
vt 64 -20
vt 68 -20
vt -64 40
vt -68 40
vt -40 24
vt -36 28
vt -32 28
vt -40 20
vt -36 -68
vt -32 -68
vt -32 -64
vt -36 -64
vt 40 20
vt 32 28
vt 36 28
vt 40 24
vt 68 40
vt 68 36
vt 64 36
vt 64 40
vt -20 -68
vt -24 -68
vt -24 -64
vt -20 -64
vt -68 16
vt 44 32
vt 40 16
vt 44 16
vt -44 64
vt -44 68
vt 44 68
vt 44 64
vt -44 16
vt -40 16
vt -44 32
vt -43.969463 44
vt -15.969463 8
vt -15.969463 4
vt -47.969463 44
vt -12 44
vt 8 44
vt 8 4
vt -12 4
vt 8 8
vt -12 8
vt 12 8
vt -8 8
vt -8 44
vt 12 44
vt -8 48
vt 12 48
vt 47.969467 44
vt 15.969465 4
vt 15.969465 8
vt 43.969467 44
vt -96 44
vt -44 44
vt -44 48
vt -96 48
vt 4 96
vt -16 96
vt 16 96
vt -4 96
vt -16 44
vt 4 44
vt 4 48
vt -16 48
vt 96 48
vt 44 48
vt 44 44
vt 96 44

# normals
vn -1 0 -0
vn -0.21359736919407368 0.9764451163157654 0.030513909884867668
vn 0 0.9701425001453319 0.24253562503633297
vn 0 -1 -0
vn -0 1 -0
vn 0 -0 -1
vn 0.21359736919407368 0.9764451163157654 0.030513909884867668
vn 1 0 -0
vn -0.21359736919407368 0.9764451163157654 -0.030513909884867668
vn 0 0 1
vn 0 0.970142500145332 -0.242535625036333
vn 0.21359736919407368 0.9764451163157654 -0.030513909884867668
vn -0.24253562503633297 0 -0.9701425001453319
vn 0.24253562503633297 0 0.9701425001453319
vn -0.7071067811865475 0.7071067811865475 -0
vn 0.7071067811865475 -0.7071067811865475 -0
vn -0.7071067811865475 -0.7071067811865475 0
vn 0.7071067811865475 0.7071067811865475 -0
vn 0 0.7808688094430304 0.6246950475544243
vn 0 -0.7893522173763263 -0.6139406135149205
vn -0.9970544855015815 0 -0.07669649888473704
vn 0.9970544855015815 0 0.07669649888473704

o entity0_brush0
usemtl __TB_empty
f  1/1/1  2/2/1  3/3/1
usemtl __TB_empty
f  3/4/2  2/5/2  4/6/2
usemtl __TB_empty
f  5/7/3  4/8/3  2/9/3  6/10/3
usemtl __TB_empty
f  6/11/4  2/12/4  1/10/4  7/9/4
usemtl __TB_empty
f  8/10/5  3/9/5  4/13/5  5/14/5
usemtl __TB_empty
f  7/15/6  1/16/6  3/17/6  8/18/6
usemtl __TB_empty
f  8/19/7  5/20/7  6/21/7
usemtl __TB_empty
f  7/2/8  8/22/8  6/1/8

o entity0_brush1
usemtl __TB_empty
f  9/15/1  10/18/1  11/23/1
usemtl __TB_empty
f  11/24/9  10/25/9  12/26/9
usemtl __TB_empty
f  13/17/10  10/18/10  9/15/10  14/16/10
usemtl __TB_empty
f  14/12/4  9/11/4  11/27/4  15/28/4
usemtl __TB_empty
f  16/29/5  12/30/5  10/12/5  13/11/5
usemtl __TB_empty
f  15/31/11  11/32/11  12/33/11  16/34/11
usemtl __TB_empty
f  15/35/12  16/36/12  13/37/12
usemtl __TB_empty
f  13/17/8  14/16/8  15/38/8

o entity0_brush2
usemtl __TB_empty
f  17/39/1  18/40/1  19/41/1  20/42/1
usemtl __TB_empty
f  21/43/13  19/44/13  18/45/13  22/46/13
usemtl __TB_empty
f  23/47/4  20/48/4  19/49/4  21/50/4
usemtl __TB_empty
f  22/51/5  18/52/5  17/53/5  24/54/5
usemtl __TB_empty
f  24/55/14  17/56/14  20/57/14  23/58/14
usemtl __TB_empty
f  22/59/8  24/60/8  23/17/8  21/61/8

o entity0_brush3
usemtl __TB_empty
f  25/62/1  26/63/1  27/64/1  28/65/1
usemtl __TB_empty
f  29/66/10  27/55/10  26/67/10  30/68/10
usemtl __TB_empty
f  30/69/4  26/47/4  25/50/4  31/70/4
usemtl __TB_empty
f  32/71/5  28/51/5  27/54/5  29/72/5
usemtl __TB_empty
f  31/73/6  25/74/6  28/46/6  32/75/6
usemtl __TB_empty
f  32/59/8  29/60/8  30/76/8  31/77/8

o entity0_brush4
usemtl __TB_empty
f  33/47/1  34/78/1  35/79/1  36/50/1
usemtl __TB_empty
f  35/80/15  34/81/15  37/82/15  38/83/15
usemtl __TB_empty
f  39/84/10  37/85/10  34/86/10  33/87/10
usemtl __TB_empty
f  40/88/5  38/89/5  37/90/5  39/91/5
usemtl __TB_empty
f  36/92/6  35/93/6  38/94/6  40/95/6
usemtl __TB_empty
f  40/96/16  39/97/16  33/98/16  36/99/16

o entity0_brush5
usemtl __TB_empty
f  41/100/17  42/64/17  43/65/17  44/101/17
usemtl __TB_empty
f  45/102/10  46/103/10  42/104/10  41/105/10
usemtl __TB_empty
f  47/106/5  43/107/5  42/108/5  46/109/5
usemtl __TB_empty
f  44/110/6  43/111/6  47/112/6  48/113/6
usemtl __TB_empty
f  48/114/18  47/115/18  46/116/18  45/117/18
usemtl __TB_empty
f  44/118/8  48/119/8  45/120/8  41/121/8

o entity0_brush6
usemtl __TB_empty
f  49/122/1  50/18/1  51/64/1  52/65/1
usemtl __TB_empty
f  53/123/10  51/66/10  50/124/10  54/125/10
usemtl __TB_empty
f  54/126/4  50/69/4  49/70/4  55/127/4
usemtl __TB_empty
f  56/128/5  52/71/5  51/72/5  53/129/5
usemtl __TB_empty
f  55/130/6  49/131/6  52/75/6  56/132/6
usemtl __TB_empty
f  56/59/8  53/60/8  54/17/8  55/61/8

o entity0_brush7
usemtl __TB_empty
f  57/133/1  58/134/1  59/135/1  60/136/1
usemtl __TB_empty
f  61/137/19  60/138/19  59/139/19  62/140/19
usemtl __TB_empty
f  62/140/4  59/139/4  58/141/4  63/142/4
usemtl __TB_empty
f  63/143/20  58/144/20  57/145/20  64/146/20
usemtl __TB_empty
f  64/146/6  57/145/6  60/147/6  61/148/6
usemtl __TB_empty
f  61/149/8  62/150/8  63/151/8  64/152/8

o entity0_brush8
usemtl __TB_empty
f  65/153/21  66/154/21  67/155/21  68/156/21
usemtl __TB_empty
f  69/148/10  67/147/10  66/145/10  70/146/10
usemtl __TB_empty
f  70/137/4  66/138/4  65/157/4  71/158/4
usemtl __TB_empty
f  72/159/5  68/160/5  67/145/5  69/146/5
usemtl __TB_empty
f  71/161/6  65/162/6  68/163/6  72/164/6
usemtl __TB_empty
f  72/165/22  69/166/22  70/167/22  71/168/22

