# Blender 4.4.0
# www.blender.org
o entity0_brush0
v -12.800003 2.400000 -12.800003
v -12.800003 2.400002 12.800003
v -12.800003 3.200000 -12.800003
v -9.600002 3.200001 9.600002
v 9.600002 3.200001 9.600002
v 12.800003 2.400002 12.800003
v 12.800003 2.400000 -12.800003
v 12.800003 3.200000 -12.800003
vn 1.0000 -0.0000 -0.0000
vn 0.2136 -0.9764 -0.0305
vn -0.0000 -0.9701 -0.2425
vn -0.0000 1.0000 -0.0000
vn -0.0000 -1.0000 -0.0000
vn -0.0000 -0.0000 1.0000
vn -0.2136 -0.9764 -0.0305
vn -1.0000 -0.0000 -0.0000
vt -64.000000 -12.000000
vt -64.000000 -16.000000
vt 64.000000 -12.000000
vt -64.000000 63.866669
vt 48.000000 47.866669
vt 64.000000 63.866669
vt -48.000000 48.000000
vt 48.000000 48.000000
vt 64.000000 64.000000
vt 64.000000 -64.000000
vt -64.000000 -64.000000
vt -64.000000 64.000000
vt 48.000000 -48.000000
vt 64.000000 12.000000
vt -64.000000 12.000000
vt -64.000000 16.000000
vt 64.000000 63.826668
vt -64.000000 63.826668
vt -48.000000 47.826668
vt 64.000000 -16.000000
vt -48.000000 -48.000000
vt 64.000000 16.000000
s 1
f 1/1/1 3/2/1 2/3/1
f 3/4/2 4/5/2 2/6/2
f 4/7/3 5/8/3 6/9/3
f 2/10/4 6/11/4 7/12/4
f 3/12/5 8/9/5 5/13/5
f 1/14/6 7/15/6 8/16/6
f 8/17/7 6/18/7 5/19/7
f 7/3/8 6/1/8 8/20/8
f 4/7/3 6/9/3 2/12/3
f 2/10/4 7/12/4 1/9/4
f 3/12/5 5/13/5 4/21/5
f 1/14/6 8/16/6 3/22/6
o entity0_brush1
v -12.800003 2.400000 -12.800003
v -12.800003 3.200000 -12.800003
v -12.800003 2.399998 -38.400009
v -9.600002 3.199998 -35.200008
v 12.800003 3.200000 -12.800003
v 12.800003 2.400000 -12.800003
v 12.800003 2.399998 -38.400009
v 9.600002 3.199998 -35.200008
vn 1.0000 -0.0000 -0.0000
vn 0.2136 -0.9764 0.0305
vn -0.0000 -0.0000 -1.0000
vn -0.0000 1.0000 -0.0000
vn -0.0000 -1.0000 -0.0000
vn -0.0000 -0.9701 0.2425
vn -0.2136 -0.9764 0.0305
vn -1.0000 -0.0000 -0.0000
vt -64.000000 12.000000
vt -192.000000 12.000000
vt -64.000000 16.000000
vt -192.000000 63.306667
vt -176.000000 47.306667
vt -64.000000 63.306667
vt 64.000000 16.000000
vt 64.000000 12.000000
vt -64.000000 -64.000000
vt 64.000000 -64.000000
vt 64.000000 -192.000000
vt 48.000000 -176.000000
vt -48.000000 -176.000000
vt 64.000000 192.000000
vt -64.000000 192.000000
vt -48.000000 176.000000
vt 192.000000 63.306667
vt 64.000000 63.306667
vt 176.000000 47.306667
vt 192.000000 12.000000
vt -64.000000 -192.000000
vt 48.000000 176.000000
s 1
f 9/23/9 11/24/9 10/25/9
f 11/26/10 12/27/10 10/28/10
f 10/25/11 13/29/11 14/30/11
f 9/31/12 14/32/12 15/33/12
f 12/34/13 16/35/13 13/31/13
f 11/36/14 15/37/14 16/38/14
f 15/39/15 13/40/15 16/41/15
f 13/29/16 15/42/16 14/30/16
f 10/25/11 14/30/11 9/23/11
f 9/31/12 15/33/12 11/43/12
f 12/34/13 13/31/13 10/32/13
f 11/36/14 16/38/14 12/44/14
o entity0_brush2
v -12.000003 6.400001 -8.800003
v -12.000003 6.400001 -9.600003
v -12.000003 3.200000 -9.600002
v -12.000003 3.200000 -8.800002
v 4.000001 3.200000 -13.600003
v 4.000001 6.400001 -13.600004
v 4.000001 3.200000 -12.800003
v 4.000001 6.400001 -12.800004
vn 1.0000 -0.0000 -0.0000
vn 0.2425 -0.0000 0.9701
vn -0.0000 1.0000 -0.0000
vn -0.0000 -1.0000 -0.0000
vn -0.2425 -0.0000 -0.9701
vn -1.0000 -0.0000 -0.0000
vt -48.000000 -32.000000
vt -44.000000 -32.000000
vt -44.000000 -16.000000
vt 60.000000 16.000000
vt -20.000000 16.000000
vt -20.000000 32.000000
vt -20.000000 64.000000
vt -20.000000 68.000000
vt 60.000000 48.000000
vt -60.000000 48.000000
vt 20.000000 68.000000
vt 20.000000 64.000000
vt -60.000000 32.000000
vt 20.000000 32.000000
vt 20.000000 16.000000
vt 64.000000 32.000000
vt 68.000000 32.000000
vt 68.000000 16.000000
vt -48.000000 -16.000000
vt 60.000000 32.000000
vt 60.000000 44.000000
vt -60.000000 44.000000
vt -60.000000 16.000000
vt 64.000000 16.000000
s 1
f 18/45/17 17/46/17 20/47/17
f 19/48/18 21/49/18 22/50/18
f 23/51/19 21/52/19 19/53/19
f 18/54/20 22/55/20 24/56/20
f 17/57/21 24/58/21 23/59/21
f 24/60/22 22/61/22 21/62/22
f 18/45/17 20/47/17 19/63/17
f 19/48/18 22/50/18 18/64/18
f 23/51/19 19/53/19 20/65/19
f 18/54/20 24/56/20 17/66/20
f 17/57/21 23/59/21 20/67/21
f 24/60/22 21/62/22 23/68/22
o entity0_brush3
v 4.000001 5.600000 -13.600003
v 4.000001 5.600000 -12.800003
v 4.000001 6.400001 -12.800004
v 4.000001 6.400001 -13.600004
v 8.000002 6.400001 -12.800004
v 8.000002 5.600000 -12.800003
v 8.000002 5.600000 -13.600003
v 8.000002 6.400001 -13.600004
vn 1.0000 -0.0000 -0.0000
vn -0.0000 -0.0000 -1.0000
vn -0.0000 1.0000 -0.0000
vn -0.0000 -1.0000 -0.0000
vn -0.0000 -0.0000 1.0000
vn -1.0000 -0.0000 -0.0000
vt -64.000000 28.000000
vt -68.000000 28.000000
vt -68.000000 32.000000
vt 20.000000 32.000000
vt 40.000000 32.000000
vt 40.000000 28.000000
vt -20.000000 64.000000
vt -40.000000 64.000000
vt -40.000000 68.000000
vt 20.000000 68.000000
vt 40.000000 68.000000
vt 40.000000 64.000000
vt -20.000000 28.000000
vt -40.000000 28.000000
vt -40.000000 32.000000
vt 64.000000 32.000000
vt 68.000000 32.000000
vt 68.000000 28.000000
vt -64.000000 32.000000
vt 20.000000 28.000000
vt -20.000000 68.000000
vt 20.000000 64.000000
vt -20.000000 32.000000
vt 64.000000 28.000000
s 1
f 26/69/23 25/70/23 28/71/23
f 27/72/24 29/73/24 30/74/24
f 26/75/25 30/76/25 31/77/25
f 28/78/26 32/79/26 29/80/26
f 25/81/27 31/82/27 32/83/27
f 29/84/28 32/85/28 31/86/28
f 26/69/23 28/71/23 27/87/23
f 27/72/24 30/74/24 26/88/24
f 26/75/25 31/77/25 25/89/25
f 28/78/26 29/80/26 27/90/26
f 25/81/27 32/83/27 28/91/27
f 29/84/28 31/86/28 30/92/28
o entity0_brush4
v 4.000001 4.000000 -12.800003
v 4.000001 4.800000 -12.800003
v 4.000001 4.800000 -13.600003
v 4.000001 4.000000 -13.600003
v 4.800001 5.600000 -12.800003
v 4.800001 5.600000 -13.600003
v 5.600001 5.600000 -12.800003
v 5.600001 5.600000 -13.600003
vn 1.0000 -0.0000 -0.0000
vn 0.7071 -0.7071 -0.0000
vn -0.0000 -0.0000 -1.0000
vn -0.0000 -1.0000 -0.0000
vn -0.0000 -0.0000 1.0000
vn -0.7071 0.7071 -0.0000
vt -24.000000 64.000000
vt -20.000000 64.000000
vt -20.000000 68.000000
vt -64.000000 -20.000000
vt -68.000000 -20.000000
vt -68.000000 -24.000000
vt -24.000000 28.000000
vt -28.000000 28.000000
vt -20.000000 20.000000
vt 24.000000 68.000000
vt 28.000000 68.000000
vt 28.000000 64.000000
vt 20.000000 24.000000
vt 20.000000 20.000000
vt 28.000000 28.000000
vt 64.000000 -28.000000
vt 68.000000 -28.000000
vt 68.000000 -20.000000
vt -24.000000 68.000000
vt -64.000000 -24.000000
vt -20.000000 24.000000
vt 24.000000 64.000000
vt 24.000000 28.000000
vt 64.000000 -20.000000
s 1
f 34/93/29 33/94/29 36/95/29
f 34/96/30 35/97/30 38/98/30
f 37/99/31 39/100/31 33/101/31
f 38/102/32 40/103/32 39/104/32
f 35/105/33 36/106/33 40/107/33
f 39/108/34 40/109/34 36/110/34
f 34/93/29 36/95/29 35/111/29
f 34/96/30 38/98/30 37/112/30
f 37/99/31 33/101/31 34/113/31
f 38/102/32 39/104/32 37/114/32
f 35/105/33 40/107/33 38/115/33
f 39/108/34 36/110/34 33/116/34
o entity0_brush5
v 8.000002 4.000000 -12.800003
v 6.400002 5.600000 -12.800003
v 6.400002 5.600000 -13.600003
v 8.000002 4.000000 -13.600003
v 8.000002 4.800000 -12.800003
v 7.200002 5.600000 -12.800003
v 7.200002 5.600000 -13.600003
v 8.000002 4.800000 -13.600003
vn 0.7071 0.7071 -0.0000
vn -0.0000 -0.0000 -1.0000
vn -0.0000 -1.0000 -0.0000
vn -0.0000 -0.0000 1.0000
vn -0.7071 -0.7071 -0.0000
vn -1.0000 -0.0000 -0.0000
vt -64.000000 32.000000
vt -64.000000 40.000000
vt -68.000000 40.000000
vt -36.000000 28.000000
vt -40.000000 24.000000
vt -40.000000 20.000000
vt -32.000000 -68.000000
vt -36.000000 -68.000000
vt -36.000000 -64.000000
vt 32.000000 28.000000
vt 40.000000 20.000000
vt 40.000000 24.000000
vt 68.000000 36.000000
vt 68.000000 40.000000
vt 64.000000 40.000000
vt -24.000000 -68.000000
vt -20.000000 -68.000000
vt -20.000000 -64.000000
vt -68.000000 32.000000
vt -32.000000 28.000000
vt -32.000000 -64.000000
vt 36.000000 28.000000
vt 64.000000 36.000000
vt -24.000000 -64.000000
s 1
f 42/117/35 41/118/35 44/119/35
f 46/120/36 45/121/36 41/122/36
f 43/123/37 47/124/37 46/125/37
f 43/126/38 44/127/38 48/128/38
f 47/129/39 48/130/39 45/131/39
f 48/132/40 44/133/40 41/134/40
f 42/117/35 44/119/35 43/135/35
f 46/120/36 41/122/36 42/136/36
f 43/123/37 46/125/37 42/137/37
f 43/126/38 48/128/38 47/138/38
f 47/129/39 45/131/39 46/139/39
f 48/132/40 41/134/40 45/140/40
o entity0_brush6
v 8.000002 3.200000 -13.600003
v 8.000002 3.200000 -12.800003
v 8.000002 6.400001 -12.800004
v 8.000002 6.400001 -13.600004
v 8.800002 6.400001 -12.800004
v 8.800002 3.200000 -12.800003
v 8.800002 3.200000 -13.600003
v 8.800002 6.400001 -13.600004
vn 1.0000 -0.0000 -0.0000
vn -0.0000 -0.0000 -1.0000
vn -0.0000 1.0000 -0.0000
vn -0.0000 -1.0000 -0.0000
vn -0.0000 -0.0000 1.0000
vn -1.0000 -0.0000 -0.0000
vt -64.000000 16.000000
vt -68.000000 16.000000
vt -68.000000 32.000000
vt 40.000000 32.000000
vt 44.000000 32.000000
vt 44.000000 16.000000
vt -40.000000 64.000000
vt -44.000000 64.000000
vt -44.000000 68.000000
vt 40.000000 68.000000
vt 44.000000 68.000000
vt 44.000000 64.000000
vt -40.000000 16.000000
vt -44.000000 16.000000
vt -44.000000 32.000000
vt 64.000000 32.000000
vt 68.000000 32.000000
vt 68.000000 16.000000
vt -64.000000 32.000000
vt 40.000000 16.000000
vt -40.000000 68.000000
vt 40.000000 64.000000
vt -40.000000 32.000000
vt 64.000000 16.000000
s 1
f 50/141/41 49/142/41 52/143/41
f 51/144/42 53/145/42 54/146/42
f 50/147/43 54/148/43 55/149/43
f 52/150/44 56/151/44 53/152/44
f 49/153/45 55/154/45 56/155/45
f 53/156/46 56/157/46 55/158/46
f 50/141/41 52/143/41 51/159/41
f 51/144/42 54/146/42 50/160/42
f 50/147/43 55/149/43 49/161/43
f 52/150/44 53/152/44 51/162/44
f 49/153/45 56/155/45 52/163/45
f 53/156/46 55/158/46 54/164/46
o entity0_brush7
v -1.600000 8.800001 -8.800003
v -1.600000 3.200001 -1.600001
v -1.600000 3.200001 -0.800000
v -1.600000 9.600001 -8.800003
v 2.400001 9.600001 -8.800003
v 2.400001 3.200001 -0.800000
v 2.400001 3.200001 -1.600001
v 2.400001 8.800001 -8.800003
vn 1.0000 -0.0000 -0.0000
vn -0.0000 -0.7809 -0.6247
vn -0.0000 1.0000 -0.0000
vn -0.0000 0.7894 0.6139
vn -0.0000 -0.0000 1.0000
vn -1.0000 -0.0000 -0.0000
vt -15.969463 8.000000
vt -43.969463 44.000000
vt -47.969463 44.000000
vt 8.000000 44.000000
vt -12.000000 44.000000
vt -12.000000 4.000000
vt 8.000000 4.000000
vt -12.000000 8.000000
vt -8.000000 8.000000
vt 12.000000 8.000000
vt 12.000000 44.000000
vt -8.000000 44.000000
vt 12.000000 48.000000
vt 47.969467 44.000000
vt 43.969467 44.000000
vt 15.969465 8.000000
vt -15.969463 4.000000
vt 8.000000 8.000000
vt -8.000000 48.000000
vt 15.969465 4.000000
s 1
f 58/165/47 57/166/47 60/167/47
f 60/168/48 61/169/48 62/170/48
f 59/171/49 62/170/49 63/172/49
f 58/173/50 63/174/50 64/175/50
f 57/176/51 64/175/51 61/177/51
f 61/178/52 64/179/52 63/180/52
f 58/165/47 60/167/47 59/181/47
f 60/168/48 62/170/48 59/171/48
f 59/171/49 63/172/49 58/182/49
f 58/173/50 64/175/50 57/176/50
f 57/176/51 61/177/51 60/183/51
f 61/178/52 63/180/52 62/184/52
o entity0_brush8
v -0.800000 8.800000 -19.200005
v -1.600000 8.800001 -8.800003
v -1.600000 9.600001 -8.800003
v -0.800000 9.600000 -19.200005
v 2.400001 9.600001 -8.800003
v 2.400001 8.800001 -8.800003
v 3.200001 8.800000 -19.200005
v 3.200001 9.600000 -19.200005
vn 0.9971 -0.0000 0.0767
vn -0.0000 -0.0000 -1.0000
vn -0.0000 1.0000 -0.0000
vn -0.0000 -1.0000 -0.0000
vn -0.0000 -0.0000 1.0000
vn -0.9971 -0.0000 -0.0767
vt -44.000000 44.000000
vt -96.000000 44.000000
vt -96.000000 48.000000
vt -8.000000 48.000000
vt 12.000000 48.000000
vt 12.000000 44.000000
vt -12.000000 44.000000
vt -16.000000 96.000000
vt 4.000000 96.000000
vt -4.000000 96.000000
vt 16.000000 96.000000
vt 4.000000 44.000000
vt -16.000000 44.000000
vt -16.000000 48.000000
vt 44.000000 48.000000
vt 96.000000 48.000000
vt 96.000000 44.000000
vt -44.000000 48.000000
vt -8.000000 44.000000
vt 8.000000 44.000000
vt 4.000000 48.000000
vt 44.000000 44.000000
s 1
f 66/185/53 65/186/53 68/187/53
f 67/188/54 69/189/54 70/190/54
f 70/191/55 71/192/55 65/193/55
f 68/194/56 72/195/56 69/190/56
f 65/196/57 71/197/57 72/198/57
f 69/199/58 72/200/58 71/201/58
f 66/185/53 68/187/53 67/202/53
f 67/188/54 70/190/54 66/203/54
f 70/191/55 65/193/55 66/204/55
f 68/194/56 69/190/56 67/203/56
f 65/196/57 72/198/57 68/205/57
f 69/199/58 71/201/58 70/206/58
