# Blender 4.4.0
# www.blender.org
o entity0_brush0
v -12.800003 2.400000 -12.800003
v -12.800003 2.400002 12.800003
v -12.800003 3.200000 -12.800003
v -9.600002 3.200001 9.600002
v 9.600002 3.200001 9.600002
v 12.800003 2.400002 12.800003
v 12.800003 2.400000 -12.800003
v 12.800003 3.200000 -12.800003
vn -1.0000 -0.0000 -0.0000
vn -0.2136 0.9764 0.0305
vn -0.0000 0.9701 0.2425
vn -0.0000 -1.0000 -0.0000
vn -0.0000 1.0000 -0.0000
vn -0.0000 -0.0000 -1.0000
vn 0.2136 0.9764 0.0305
vn 1.0000 -0.0000 -0.0000
vt -64.000000 -12.000000
vt 64.000000 -12.000000
vt -64.000000 -16.000000
vt -64.000000 63.866669
vt 64.000000 63.866669
vt 48.000000 47.866669
vt -48.000000 48.000000
vt 64.000000 64.000000
vt 48.000000 48.000000
vt 64.000000 -64.000000
vt -64.000000 64.000000
vt -64.000000 -64.000000
vt 48.000000 -48.000000
vt 64.000000 12.000000
vt -64.000000 16.000000
vt -64.000000 12.000000
vt 64.000000 63.826668
vt -48.000000 47.826668
vt -64.000000 63.826668
vt 64.000000 -16.000000
vt -48.000000 -48.000000
vt 64.000000 16.000000
s 1
f 1/1/1 2/2/1 3/3/1
f 3/4/2 2/5/2 4/6/2
f 4/7/3 6/8/3 5/9/3
f 2/10/4 7/11/4 6/12/4
f 3/11/5 5/13/5 8/8/5
f 1/14/6 8/15/6 7/16/6
f 8/17/7 5/18/7 6/19/7
f 7/2/8 8/20/8 6/1/8
f 4/7/3 2/11/3 6/8/3
f 2/10/4 1/8/4 7/11/4
f 3/11/5 4/21/5 5/13/5
f 1/14/6 3/22/6 8/15/6
o entity0_brush1
v -12.800003 2.400000 -12.800003
v -12.800003 3.200000 -12.800003
v -12.800003 2.399998 -38.400009
v -9.600002 3.199998 -35.200008
v 12.800003 3.200000 -12.800003
v 12.800003 2.400000 -12.800003
v 12.800003 2.399998 -38.400009
v 9.600002 3.199998 -35.200008
vn -1.0000 -0.0000 -0.0000
vn -0.2136 0.9764 -0.0305
vn -0.0000 -0.0000 1.0000
vn -0.0000 -1.0000 -0.0000
vn -0.0000 1.0000 -0.0000
vn -0.0000 0.9701 -0.2425
vn 0.2136 0.9764 -0.0305
vn 1.0000 -0.0000 -0.0000
vt -64.000000 12.000000
vt -64.000000 16.000000
vt -192.000000 12.000000
vt -192.000000 63.306667
vt -64.000000 63.306667
vt -176.000000 47.306667
vt 64.000000 12.000000
vt 64.000000 16.000000
vt -64.000000 -64.000000
vt 64.000000 -192.000000
vt 64.000000 -64.000000
vt 48.000000 -176.000000
vt -48.000000 -176.000000
vt 64.000000 192.000000
vt -48.000000 176.000000
vt -64.000000 192.000000
vt 192.000000 63.306667
vt 176.000000 47.306667
vt 64.000000 63.306667
vt 192.000000 12.000000
vt -64.000000 -192.000000
vt 48.000000 176.000000
s 1
f 9/23/9 10/24/9 11/25/9
f 11/26/10 10/27/10 12/28/10
f 10/24/11 14/29/11 13/30/11
f 9/31/12 15/32/12 14/33/12
f 12/34/13 13/31/13 16/35/13
f 11/36/14 16/37/14 15/38/14
f 15/39/15 16/40/15 13/41/15
f 13/30/16 14/29/16 15/42/16
f 10/24/11 9/23/11 14/29/11
f 9/31/12 11/43/12 15/32/12
f 12/34/13 10/33/13 13/31/13
f 11/36/14 12/44/14 16/37/14
o entity0_brush2
v -12.000003 6.400001 -8.800003
v -12.000003 6.400001 -9.600003
v -12.000003 3.200000 -9.600002
v -12.000003 3.200000 -8.800002
v 4.000001 3.200000 -13.600003
v 4.000001 6.400001 -13.600004
v 4.000001 3.200000 -12.800003
v 4.000001 6.400001 -12.800004
vn -1.0000 -0.0000 -0.0000
vn -0.2425 -0.0000 -0.9701
vn -0.0000 -1.0000 -0.0000
vn -0.0000 1.0000 -0.0000
vn 0.2425 -0.0000 0.9701
vn 1.0000 -0.0000 -0.0000
vt -48.000000 -32.000000
vt -44.000000 -16.000000
vt -44.000000 -32.000000
vt 60.000000 16.000000
vt -20.000000 32.000000
vt -20.000000 16.000000
vt -20.000000 64.000000
vt 60.000000 48.000000
vt -20.000000 68.000000
vt -60.000000 48.000000
vt 20.000000 64.000000
vt 20.000000 68.000000
vt -60.000000 32.000000
vt 20.000000 16.000000
vt 20.000000 32.000000
vt 64.000000 32.000000
vt 68.000000 16.000000
vt 68.000000 32.000000
vt -48.000000 -16.000000
vt 60.000000 32.000000
vt 60.000000 44.000000
vt -60.000000 44.000000
vt -60.000000 16.000000
vt 64.000000 16.000000
s 1
f 18/45/17 20/46/17 17/47/17
f 19/48/18 22/49/18 21/50/18
f 23/51/19 19/52/19 21/53/19
f 18/54/20 24/55/20 22/56/20
f 17/57/21 23/58/21 24/59/21
f 24/60/22 21/61/22 22/62/22
f 18/45/17 19/63/17 20/46/17
f 19/48/18 18/64/18 22/49/18
f 23/51/19 20/65/19 19/52/19
f 18/54/20 17/66/20 24/55/20
f 17/57/21 20/67/21 23/58/21
f 24/60/22 23/68/22 21/61/22
o entity0_brush3
v 4.000001 5.600000 -13.600003
v 4.000001 5.600000 -12.800003
v 4.000001 6.400001 -12.800004
v 4.000001 6.400001 -13.600004
v 8.000002 6.400001 -12.800004
v 8.000002 5.600000 -12.800003
v 8.000002 5.600000 -13.600003
v 8.000002 6.400001 -13.600004
vn -1.0000 -0.0000 -0.0000
vn -0.0000 -0.0000 1.0000
vn -0.0000 -1.0000 -0.0000
vn -0.0000 1.0000 -0.0000
vn -0.0000 -0.0000 -1.0000
vn 1.0000 -0.0000 -0.0000
vt -64.000000 28.000000
vt -68.000000 32.000000
vt -68.000000 28.000000
vt 20.000000 32.000000
vt 40.000000 28.000000
vt 40.000000 32.000000
vt -20.000000 64.000000
vt -40.000000 68.000000
vt -40.000000 64.000000
vt 20.000000 68.000000
vt 40.000000 64.000000
vt 40.000000 68.000000
vt -20.000000 28.000000
vt -40.000000 32.000000
vt -40.000000 28.000000
vt 64.000000 32.000000
vt 68.000000 28.000000
vt 68.000000 32.000000
vt -64.000000 32.000000
vt 20.000000 28.000000
vt -20.000000 68.000000
vt 20.000000 64.000000
vt -20.000000 32.000000
vt 64.000000 28.000000
s 1
f 26/69/23 28/70/23 25/71/23
f 27/72/24 30/73/24 29/74/24
f 26/75/25 31/76/25 30/77/25
f 28/78/26 29/79/26 32/80/26
f 25/81/27 32/82/27 31/83/27
f 29/84/28 31/85/28 32/86/28
f 26/69/23 27/87/23 28/70/23
f 27/72/24 26/88/24 30/73/24
f 26/75/25 25/89/25 31/76/25
f 28/78/26 27/90/26 29/79/26
f 25/81/27 28/91/27 32/82/27
f 29/84/28 30/92/28 31/85/28
o entity0_brush4
v 4.000001 4.000000 -12.800003
v 4.000001 4.800000 -12.800003
v 4.000001 4.800000 -13.600003
v 4.000001 4.000000 -13.600003
v 4.800001 5.600000 -12.800003
v 4.800001 5.600000 -13.600003
v 5.600001 5.600000 -12.800003
v 5.600001 5.600000 -13.600003
vn -1.0000 -0.0000 -0.0000
vn -0.7071 0.7071 -0.0000
vn -0.0000 -0.0000 1.0000
vn -0.0000 1.0000 -0.0000
vn -0.0000 -0.0000 -1.0000
vn 0.7071 -0.7071 -0.0000
vt -24.000000 64.000000
vt -20.000000 68.000000
vt -20.000000 64.000000
vt -64.000000 -20.000000
vt -68.000000 -24.000000
vt -68.000000 -20.000000
vt -24.000000 28.000000
vt -20.000000 20.000000
vt -28.000000 28.000000
vt 24.000000 68.000000
vt 28.000000 64.000000
vt 28.000000 68.000000
vt 20.000000 24.000000
vt 28.000000 28.000000
vt 20.000000 20.000000
vt 64.000000 -28.000000
vt 68.000000 -20.000000
vt 68.000000 -28.000000
vt -24.000000 68.000000
vt -64.000000 -24.000000
vt -20.000000 24.000000
vt 24.000000 64.000000
vt 24.000000 28.000000
vt 64.000000 -20.000000
s 1
f 34/93/29 36/94/29 33/95/29
f 34/96/30 38/97/30 35/98/30
f 37/99/31 33/100/31 39/101/31
f 38/102/32 39/103/32 40/104/32
f 35/105/33 40/106/33 36/107/33
f 39/108/34 36/109/34 40/110/34
f 34/93/29 35/111/29 36/94/29
f 34/96/30 37/112/30 38/97/30
f 37/99/31 34/113/31 33/100/31
f 38/102/32 37/114/32 39/103/32
f 35/105/33 38/115/33 40/106/33
f 39/108/34 33/116/34 36/109/34
o entity0_brush5
v 8.000002 4.000000 -12.800003
v 6.400002 5.600000 -12.800003
v 6.400002 5.600000 -13.600003
v 8.000002 4.000000 -13.600003
v 8.000002 4.800000 -12.800003
v 7.200002 5.600000 -12.800003
v 7.200002 5.600000 -13.600003
v 8.000002 4.800000 -13.600003
vn -0.7071 -0.7071 -0.0000
vn -0.0000 -0.0000 1.0000
vn -0.0000 1.0000 -0.0000
vn -0.0000 -0.0000 -1.0000
vn 0.7071 0.7071 -0.0000
vn 1.0000 -0.0000 -0.0000
vt -64.000000 32.000000
vt -68.000000 40.000000
vt -64.000000 40.000000
vt -36.000000 28.000000
vt -40.000000 20.000000
vt -40.000000 24.000000
vt -32.000000 -68.000000
vt -36.000000 -64.000000
vt -36.000000 -68.000000
vt 32.000000 28.000000
vt 40.000000 24.000000
vt 40.000000 20.000000
vt 68.000000 36.000000
vt 64.000000 40.000000
vt 68.000000 40.000000
vt -24.000000 -68.000000
vt -20.000000 -64.000000
vt -20.000000 -68.000000
vt -68.000000 32.000000
vt -32.000000 28.000000
vt -32.000000 -64.000000
vt 36.000000 28.000000
vt 64.000000 36.000000
vt -24.000000 -64.000000
s 1
f 42/117/35 44/118/35 41/119/35
f 46/120/36 41/121/36 45/122/36
f 43/123/37 46/124/37 47/125/37
f 43/126/38 48/127/38 44/128/38
f 47/129/39 45/130/39 48/131/39
f 48/132/40 41/133/40 44/134/40
f 42/117/35 43/135/35 44/118/35
f 46/120/36 42/136/36 41/121/36
f 43/123/37 42/137/37 46/124/37
f 43/126/38 47/138/38 48/127/38
f 47/129/39 46/139/39 45/130/39
f 48/132/40 45/140/40 41/133/40
o entity0_brush6
v 8.000002 3.200000 -13.600003
v 8.000002 3.200000 -12.800003
v 8.000002 6.400001 -12.800004
v 8.000002 6.400001 -13.600004
v 8.800002 6.400001 -12.800004
v 8.800002 3.200000 -12.800003
v 8.800002 3.200000 -13.600003
v 8.800002 6.400001 -13.600004
vn -1.0000 -0.0000 -0.0000
vn -0.0000 -0.0000 1.0000
vn -0.0000 -1.0000 -0.0000
vn -0.0000 1.0000 -0.0000
vn -0.0000 -0.0000 -1.0000
vn 1.0000 -0.0000 -0.0000
vt -64.000000 16.000000
vt -68.000000 32.000000
vt -68.000000 16.000000
vt 40.000000 32.000000
vt 44.000000 16.000000
vt 44.000000 32.000000
vt -40.000000 64.000000
vt -44.000000 68.000000
vt -44.000000 64.000000
vt 40.000000 68.000000
vt 44.000000 64.000000
vt 44.000000 68.000000
vt -40.000000 16.000000
vt -44.000000 32.000000
vt -44.000000 16.000000
vt 64.000000 32.000000
vt 68.000000 16.000000
vt 68.000000 32.000000
vt -64.000000 32.000000
vt 40.000000 16.000000
vt -40.000000 68.000000
vt 40.000000 64.000000
vt -40.000000 32.000000
vt 64.000000 16.000000
s 1
f 50/141/41 52/142/41 49/143/41
f 51/144/42 54/145/42 53/146/42
f 50/147/43 55/148/43 54/149/43
f 52/150/44 53/151/44 56/152/44
f 49/153/45 56/154/45 55/155/45
f 53/156/46 55/157/46 56/158/46
f 50/141/41 51/159/41 52/142/41
f 51/144/42 50/160/42 54/145/42
f 50/147/43 49/161/43 55/148/43
f 52/150/44 51/162/44 53/151/44
f 49/153/45 52/163/45 56/154/45
f 53/156/46 54/164/46 55/157/46
o entity0_brush7
v -1.600000 8.800001 -8.800003
v -1.600000 3.200001 -1.600001
v -1.600000 3.200001 -0.800000
v -1.600000 9.600001 -8.800003
v 2.400001 9.600001 -8.800003
v 2.400001 3.200001 -0.800000
v 2.400001 3.200001 -1.600001
v 2.400001 8.800001 -8.800003
vn -1.0000 -0.0000 -0.0000
vn -0.0000 0.7809 0.6247
vn -0.0000 -1.0000 -0.0000
vn -0.0000 -0.7894 -0.6139
vn -0.0000 -0.0000 -1.0000
vn 1.0000 -0.0000 -0.0000
vt -15.969463 8.000000
vt -47.969463 44.000000
vt -43.969463 44.000000
vt 8.000000 44.000000
vt -12.000000 4.000000
vt -12.000000 44.000000
vt 8.000000 4.000000
vt -12.000000 8.000000
vt -8.000000 8.000000
vt 12.000000 44.000000
vt 12.000000 8.000000
vt -8.000000 44.000000
vt 12.000000 48.000000
vt 47.969467 44.000000
vt 15.969465 8.000000
vt 43.969467 44.000000
vt -15.969463 4.000000
vt 8.000000 8.000000
vt -8.000000 48.000000
vt 15.969465 4.000000
s 1
f 58/165/47 60/166/47 57/167/47
f 60/168/48 62/169/48 61/170/48
f 59/171/49 63/172/49 62/169/49
f 58/173/50 64/174/50 63/175/50
f 57/176/51 61/177/51 64/174/51
f 61/178/52 63/179/52 64/180/52
f 58/165/47 59/181/47 60/166/47
f 60/168/48 59/171/48 62/169/48
f 59/171/49 58/182/49 63/172/49
f 58/173/50 57/176/50 64/174/50
f 57/176/51 60/183/51 61/177/51
f 61/178/52 62/184/52 63/179/52
o entity0_brush8
v -0.800000 8.800000 -19.200005
v -1.600000 8.800001 -8.800003
v -1.600000 9.600001 -8.800003
v -0.800000 9.600000 -19.200005
v 2.400001 9.600001 -8.800003
v 2.400001 8.800001 -8.800003
v 3.200001 8.800000 -19.200005
v 3.200001 9.600000 -19.200005
vn -0.9971 -0.0000 -0.0767
vn -0.0000 -0.0000 1.0000
vn -0.0000 -1.0000 -0.0000
vn -0.0000 1.0000 -0.0000
vn -0.0000 -0.0000 -1.0000
vn 0.9971 -0.0000 0.0767
vt -44.000000 44.000000
vt -96.000000 48.000000
vt -96.000000 44.000000
vt -8.000000 48.000000
vt 12.000000 44.000000
vt 12.000000 48.000000
vt -12.000000 44.000000
vt 4.000000 96.000000
vt -16.000000 96.000000
vt -4.000000 96.000000
vt 16.000000 96.000000
vt 4.000000 44.000000
vt -16.000000 48.000000
vt -16.000000 44.000000
vt 44.000000 48.000000
vt 96.000000 44.000000
vt 96.000000 48.000000
vt -44.000000 48.000000
vt -8.000000 44.000000
vt 8.000000 44.000000
vt 4.000000 48.000000
vt 44.000000 44.000000
s 1
f 66/185/53 68/186/53 65/187/53
f 67/188/54 70/189/54 69/190/54
f 70/191/55 65/192/55 71/193/55
f 68/194/56 69/189/56 72/195/56
f 65/196/57 72/197/57 71/198/57
f 69/199/58 71/200/58 72/201/58
f 66/185/53 67/202/53 68/186/53
f 67/188/54 66/203/54 70/189/54
f 70/191/55 66/204/55 65/192/55
f 68/194/56 67/203/56 69/189/56
f 65/196/57 68/205/57 72/197/57
f 69/199/58 70/206/58 71/200/58
